<?xml version="1.0" encoding="UTF-8"?>
<svg xmlns="http://www.w3.org/2000/svg" xmlns:xlink="http://www.w3.org/1999/xlink" version="1.1" width="192px" height="192px" style="shape-rendering:geometricPrecision; text-rendering:geometricPrecision; image-rendering:optimizeQuality; fill-rule:evenodd; clip-rule:evenodd">
  <g>
    <path style="opacity:1" fill="#191d20" d="M -0.5,-0.5 C 63.5,-0.5 127.5,-0.5 191.5,-0.5C 191.5,63.5 191.5,127.5 191.5,191.5C 127.5,191.5 63.5,191.5 -0.5,191.5C -0.5,127.5 -0.5,63.5 -0.5,-0.5 Z"></path>
  </g>
  <g>
    <path style="opacity:1" fill="#ececec" d="M 158.5,157.5 C 158.068,156.29 157.401,155.29 156.5,154.5C 156.67,151.509 155.337,149.509 152.5,148.5C 153.242,147.713 154.075,147.047 155,146.5C 154.891,140.121 155.057,133.787 155.5,127.5C 154.5,127.5 153.5,127.5 152.5,127.5C 152.756,125.063 153.423,122.729 154.5,120.5C 153.389,119.389 152.722,118.055 152.5,116.5C 153.901,114.192 154.901,111.692 155.5,109C 154.213,104.86 153.046,100.693 152,96.5C 151.333,93.8333 151.333,91.1667 152,88.5C 153.092,85.9556 153.759,83.2889 154,80.5C 163.665,67.7892 170.998,54.4559 176,40.5C 176.798,38.7412 176.631,37.0745 175.5,35.5C 171.367,37.8021 167.367,40.3021 163.5,43C 157.241,44.7514 151.241,47.0847 145.5,50C 139.706,51.6463 133.873,53.1463 128,54.5C 123.804,54.0274 119.637,53.3608 115.5,52.5C 114.106,52.6207 112.772,52.954 111.5,53.5C 109.292,51.8975 106.959,50.5642 104.5,49.5C 87.1718,50.1475 69.8385,50.3142 52.5,50C 40.1518,42.9916 27.4852,36.8249 14.5,31.5C 18.9229,43.679 24.4229,55.3456 31,66.5C 33.1537,72.7299 32.3203,78.5632 28.5,84C 28.8333,84.3333 29.1667,84.6667 29.5,85C 25.2417,90.7854 23.4084,97.2854 24,104.5C 23.1907,113.243 23.6907,121.909 25.5,130.5C 25.519,133.239 24.8523,135.739 23.5,138C 24.5929,140.442 25.5929,142.942 26.5,145.5C 25.5987,146.29 24.9321,147.29 24.5,148.5C 22.0809,145.598 20.4143,142.264 19.5,138.5C 20.7611,135.302 21.4278,131.969 21.5,128.5C 20.7967,122.004 20.13,115.504 19.5,109C 20.962,103.015 21.7954,96.8479 22,90.5C 24.8482,84.7912 27.0148,78.7912 28.5,72.5C 22.4129,60.467 16.5795,48.1337 11,35.5C 9.67645,28.4949 12.5098,25.9949 19.5,28C 30.8333,34 42.1667,40 53.5,46C 70.4834,46.0876 87.4834,45.9209 104.5,45.5C 106.854,45.5111 108.854,46.3444 110.5,48C 116.965,48.5218 123.299,49.6885 129.5,51.5C 140.189,46.8349 151.189,42.6682 162.5,39C 167.099,34.6867 172.433,32.6867 178.5,33C 179.98,34.2991 180.646,35.9658 180.5,38C 177.89,45.7169 175.724,53.5502 174,61.5C 172.693,62.7717 171.193,63.7717 169.5,64.5C 166.162,70.5125 162.328,76.1791 158,81.5C 156.848,85.0909 156.015,88.7576 155.5,92.5C 156.925,97.8152 158.259,103.149 159.5,108.5C 159.742,111.514 158.742,114.014 156.5,116C 158.729,118.553 159.062,121.386 157.5,124.5C 159.734,127.417 160.067,130.583 158.5,134C 159.664,141.465 160.164,148.965 160,156.5C 159.617,157.056 159.117,157.389 158.5,157.5 Z"></path>
  </g>
  <g>
    <path style="opacity:1" fill="#20201f" d="M 156.5,154.5 C 114.669,155.665 72.6687,155.831 30.5,155C 28.4889,152.032 27.1556,148.866 26.5,145.5C 25.5929,142.942 24.5929,140.442 23.5,138C 24.8523,135.739 25.519,133.239 25.5,130.5C 23.6907,121.909 23.1907,113.243 24,104.5C 23.4084,97.2854 25.2417,90.7854 29.5,85C 29.1667,84.6667 28.8333,84.3333 28.5,84C 32.3203,78.5632 33.1537,72.7299 31,66.5C 24.4229,55.3456 18.9229,43.679 14.5,31.5C 27.4852,36.8249 40.1518,42.9916 52.5,50C 69.8385,50.3142 87.1718,50.1475 104.5,49.5C 106.959,50.5642 109.292,51.8975 111.5,53.5C 112.772,52.954 114.106,52.6207 115.5,52.5C 119.637,53.3608 123.804,54.0274 128,54.5C 133.873,53.1463 139.706,51.6463 145.5,50C 151.241,47.0847 157.241,44.7514 163.5,43C 167.367,40.3021 171.367,37.8021 175.5,35.5C 176.631,37.0745 176.798,38.7412 176,40.5C 170.998,54.4559 163.665,67.7892 154,80.5C 153.759,83.2889 153.092,85.9556 152,88.5C 151.333,91.1667 151.333,93.8333 152,96.5C 153.046,100.693 154.213,104.86 155.5,109C 154.901,111.692 153.901,114.192 152.5,116.5C 152.722,118.055 153.389,119.389 154.5,120.5C 153.423,122.729 152.756,125.063 152.5,127.5C 153.5,127.5 154.5,127.5 155.5,127.5C 155.057,133.787 154.891,140.121 155,146.5C 154.075,147.047 153.242,147.713 152.5,148.5C 155.337,149.509 156.67,151.509 156.5,154.5 Z"></path>
  </g>
  <g>
    <path style="opacity:1" fill="#f8f7f1" d="M 158.5,59.5 C 160.786,59.595 162.786,60.2616 164.5,61.5C 163.649,63.8816 162.316,65.8816 160.5,67.5C 157.903,67.3568 155.569,66.5234 153.5,65C 155.373,63.2962 157.04,61.4628 158.5,59.5 Z"></path>
  </g>
  <g>
    <path style="opacity:1" fill="#c9c8c3" d="M 32.5,56.5 C 34.6298,58.1271 36.6298,59.9604 38.5,62C 36.9366,63.9473 34.9366,65.114 32.5,65.5C 31.7629,63.6954 30.7629,62.0287 29.5,60.5C 30.5244,59.1482 31.5244,57.8149 32.5,56.5 Z"></path>
  </g>
  <g>
    <path style="opacity:1" fill="#c6c5c0" d="M 172.5,44.5 C 170.746,50.3159 168.413,55.3159 165.5,59.5C 162.811,58.9618 160.144,58.2951 157.5,57.5C 156.33,58.6939 156.663,59.3605 158.5,59.5C 157.04,61.4628 155.373,63.2962 153.5,65C 155.569,66.5234 157.903,67.3568 160.5,67.5C 160.672,68.4916 160.338,69.1583 159.5,69.5C 157.775,68.095 155.775,67.595 153.5,68C 155.595,68.5556 155.762,69.0556 154,69.5C 151.83,68.2799 149.663,68.2799 147.5,69.5C 146.5,69.1667 145.833,68.5 145.5,67.5C 150.398,61.1057 156.398,55.939 163.5,52C 165.686,50.5883 167.352,48.755 168.5,46.5C 169.514,45.3263 170.847,44.6596 172.5,44.5 Z"></path>
  </g>
  <g>
    <path style="opacity:1" fill="#6d6d6a" d="M 165.5,59.5 C 165.672,60.4916 165.338,61.1583 164.5,61.5C 162.786,60.2616 160.786,59.595 158.5,59.5C 156.663,59.3605 156.33,58.6939 157.5,57.5C 160.144,58.2951 162.811,58.9618 165.5,59.5 Z"></path>
  </g>
  <g>
    <path style="opacity:1" fill="#a37b75" d="M 168.5,46.5 C 167.352,48.755 165.686,50.5883 163.5,52C 156.398,55.939 150.398,61.1057 145.5,67.5C 144.518,66.8592 143.518,66.1925 142.5,65.5C 142.167,65.8333 141.833,66.1667 141.5,66.5C 142.77,67.2876 143.77,68.2876 144.5,69.5C 143.833,69.5 143.5,69.8333 143.5,70.5C 143.167,70.5 142.833,70.5 142.5,70.5C 140.634,71.0138 138.8,71.6805 137,72.5C 130.718,72.5685 129.052,69.9018 132,64.5C 133.972,62.7682 136.139,61.4348 138.5,60.5C 148.5,55.8333 158.5,51.1667 168.5,46.5 Z"></path>
  </g>
  <g>
    <path style="opacity:1" fill="#282828" d="M 172.5,44.5 C 170.847,44.6596 169.514,45.3263 168.5,46.5C 158.5,51.1667 148.5,55.8333 138.5,60.5C 148.003,54.3635 158.003,48.8635 168.5,44C 170.066,43.235 171.399,43.4017 172.5,44.5 Z"></path>
  </g>
  <g>
    <path style="opacity:1" fill="#a07f79" d="M 18.5,36.5 C 20.8525,37.3403 22.8525,38.6736 24.5,40.5C 26.9754,43.2411 29.9754,45.2411 33.5,46.5C 36.4376,48.934 39.2709,51.6007 42,54.5C 42.4935,56.1341 42.6602,57.8008 42.5,59.5C 42.5,60.1667 42.5,60.8333 42.5,61.5C 39.4771,63.5333 36.4771,65.5333 33.5,67.5C 32.6618,67.1583 32.3284,66.4916 32.5,65.5C 34.9366,65.114 36.9366,63.9473 38.5,62C 36.6298,59.9604 34.6298,58.1271 32.5,56.5C 32.5,56.1667 32.5,55.8333 32.5,55.5C 31.7681,52.3819 30.1014,51.0485 27.5,51.5C 26.213,52.7683 25.213,52.435 24.5,50.5C 21.9572,46.0794 19.9572,41.4127 18.5,36.5 Z"></path>
  </g>
  <g>
    <path style="opacity:1" fill="#fafaf2" d="M 172.5,44.5 C 171.399,43.4017 170.066,43.235 168.5,44C 158.003,48.8635 148.003,54.3635 138.5,60.5C 136.139,61.4348 133.972,62.7682 132,64.5C 129.052,69.9018 130.718,72.5685 137,72.5C 138.8,71.6805 140.634,71.0138 142.5,70.5C 143.517,74.0529 145.017,77.3862 147,80.5C 146.726,76.932 145.56,73.5987 143.5,70.5C 143.5,69.8333 143.833,69.5 144.5,69.5C 146.573,71.5798 148.907,73.2464 151.5,74.5C 152.058,75.7899 153.058,76.6232 154.5,77C 152.148,81.5797 150.482,86.413 149.5,91.5C 150.878,96.3992 151.712,101.399 152,106.5C 152.925,107.047 153.758,107.713 154.5,108.5C 153.533,110.63 152.366,112.63 151,114.5C 150.438,116.866 150.604,119.199 151.5,121.5C 151.113,123.274 150.447,124.941 149.5,126.5C 150.671,128.169 152.004,129.669 153.5,131C 152.643,134.285 152.643,137.619 153.5,141C 153.333,142.5 153.167,144 153,145.5C 147.304,147.409 147.47,149.409 153.5,151.5C 126.833,152.833 100.167,152.833 73.5,151.5C 76.2529,150.978 78.9196,150.144 81.5,149C 82.8228,148.184 83.4894,147.017 83.5,145.5C 80.8652,148.481 77.5318,149.814 73.5,149.5C 70.1501,149.665 66.8168,149.498 63.5,149C 63.0426,148.586 62.7093,148.086 62.5,147.5C 64.1392,146.084 64.9725,144.417 65,142.5C 62.3713,142.928 60.038,143.928 58,145.5C 55.2415,143.249 53.0748,140.582 51.5,137.5C 53.099,137.768 54.4324,137.434 55.5,136.5C 58.8333,136.5 62.1667,136.5 65.5,136.5C 72.9131,139.496 80.2464,139.162 87.5,135.5C 88.8451,138.502 90.1784,141.502 91.5,144.5C 92.5,144.5 93.5,144.5 94.5,144.5C 95.0883,132.992 99.255,122.992 107,114.5C 107.611,110.912 106.111,109.746 102.5,111C 97.1264,118.041 90.793,124.041 83.5,129C 81.7216,129.704 79.8882,130.204 78,130.5C 74.8882,129.517 71.7215,128.85 68.5,128.5C 66.4223,125.949 63.7556,124.116 60.5,123C 59.695,121.887 59.0283,120.721 58.5,119.5C 59.5,118.167 60.5,116.833 61.5,115.5C 64.8025,115.088 67.4691,113.755 69.5,111.5C 67.7857,110.262 65.7857,109.595 63.5,109.5C 59.2632,107.473 54.9298,107.139 50.5,108.5C 49.3871,109.946 49.2204,111.613 50,113.5C 51.6692,114.846 52.8358,116.513 53.5,118.5C 53.6715,120.492 53.0049,122.158 51.5,123.5C 48.017,124.272 44.6836,124.606 41.5,124.5C 41.0237,122.934 40.357,122.6 39.5,123.5C 39.8555,124.522 40.5222,125.189 41.5,125.5C 46.1355,130.114 48.6355,135.781 49,142.5C 49.3826,143.056 49.8826,143.389 50.5,143.5C 50.427,145.027 51.0937,146.027 52.5,146.5C 53.2187,148.888 54.8854,150.388 57.5,151C 60.146,151.497 62.8127,151.664 65.5,151.5C 55.992,152.823 46.3254,152.823 36.5,151.5C 35.5197,150.019 34.353,148.685 33,147.5C 31.3233,137.436 29.8233,127.27 28.5,117C 29.5847,110.159 30.7514,103.326 32,96.5C 33.8718,93.4036 35.7052,90.4036 37.5,87.5C 39.3575,91.0102 42.0241,93.8435 45.5,96C 49.4817,97.4208 52.1484,96.2541 53.5,92.5C 53.0692,90.2339 51.7358,88.7339 49.5,88C 45.506,87.0555 41.506,86.2221 37.5,85.5C 39.1651,77.5355 40.8318,69.5355 42.5,61.5C 42.5,60.8333 42.5,60.1667 42.5,59.5C 43.6491,59.2089 44.3158,58.3756 44.5,57C 42.3074,51.9744 38.6407,48.4744 33.5,46.5C 31.0495,43.7232 28.0495,41.7232 24.5,40.5C 22.8525,38.6736 20.8525,37.3403 18.5,36.5C 17.7326,35.828 17.0659,34.9947 16.5,34C 28.3234,39.9117 40.3234,45.9117 52.5,52C 59.6764,51.5412 66.843,51.7078 74,52.5C 76.9989,52.5191 79.8322,51.8525 82.5,50.5C 89.718,52.7423 97.0513,53.0757 104.5,51.5C 106.879,52.4419 109.046,53.7753 111,55.5C 112.194,54.5697 113.527,53.9031 115,53.5C 120.925,56.076 127.091,56.9094 133.5,56C 143.042,52.0646 152.709,48.3979 162.5,45C 166.577,43.2131 170.41,41.0464 174,38.5C 174.405,40.7749 173.905,42.7749 172.5,44.5 Z"></path>
  </g>
  <g>
    <path style="opacity:1" fill="#cdccc7" d="M 32.5,55.5 C 27.4732,59.5022 25.8065,58.1689 27.5,51.5C 30.1014,51.0485 31.7681,52.3819 32.5,55.5 Z"></path>
  </g>
  <g>
    <path style="opacity:1" fill="#2f2e2e" d="M 33.5,46.5 C 38.6407,48.4744 42.3074,51.9744 44.5,57C 44.3158,58.3756 43.6491,59.2089 42.5,59.5C 42.6602,57.8008 42.4935,56.1341 42,54.5C 39.2709,51.6007 36.4376,48.934 33.5,46.5 Z"></path>
  </g>
  <g>
    <path style="opacity:1" fill="#3e3b3a" d="M 24.5,40.5 C 28.0495,41.7232 31.0495,43.7232 33.5,46.5C 29.9754,45.2411 26.9754,43.2411 24.5,40.5 Z"></path>
  </g>
  <g>
    <path style="opacity:1" fill="#faf9f3" d="M 159.5,69.5 C 158.298,71.3925 156.965,73.2258 155.5,75C 154.181,75.195 152.847,75.0283 151.5,74.5C 150.167,72.8333 148.833,71.1667 147.5,69.5C 149.663,68.2799 151.83,68.2799 154,69.5C 155.762,69.0556 155.595,68.5556 153.5,68C 155.775,67.595 157.775,68.095 159.5,69.5 Z"></path>
  </g>
  <g>
    <path style="opacity:1" fill="#44403e" d="M 145.5,67.5 C 145.833,68.5 146.5,69.1667 147.5,69.5C 148.833,71.1667 150.167,72.8333 151.5,74.5C 148.907,73.2464 146.573,71.5798 144.5,69.5C 143.77,68.2876 142.77,67.2876 141.5,66.5C 141.833,66.1667 142.167,65.8333 142.5,65.5C 143.518,66.1925 144.518,66.8592 145.5,67.5 Z"></path>
  </g>
  <g>
    <path style="opacity:1" fill="#585856" d="M 142.5,70.5 C 142.833,70.5 143.167,70.5 143.5,70.5C 145.56,73.5987 146.726,76.932 147,80.5C 145.017,77.3862 143.517,74.0529 142.5,70.5 Z"></path>
  </g>
  <g>
    <path style="opacity:1" fill="#0f0f0f" d="M 37.5,85.5 C 41.506,86.2221 45.506,87.0555 49.5,88C 51.7358,88.7339 53.0692,90.2339 53.5,92.5C 52.1484,96.2541 49.4817,97.4208 45.5,96C 42.0241,93.8435 39.3575,91.0102 37.5,87.5C 37.5,86.8333 37.5,86.1667 37.5,85.5 Z"></path>
  </g>
  <g>
    <path style="opacity:1" fill="#dedede" d="M 47.5,88.5 C 49.9575,88.9261 51.1242,90.2594 51,92.5C 48.9286,91.8971 47.7619,90.5638 47.5,88.5 Z"></path>
  </g>
  <g>
    <path style="opacity:1" fill="#0d0d0c" d="M 88.5,88.5 C 94.4325,88.0503 100.099,88.8836 105.5,91C 97.094,98.441 87.7607,100.108 77.5,96C 80.5741,92.4755 84.2408,89.9755 88.5,88.5 Z"></path>
  </g>
  <g>
    <path style="opacity:1" fill="#e5e5e6" d="M 92.5,89.5 C 94.604,89.2011 96.604,89.5344 98.5,90.5C 97.5,90.8333 96.5,91.1667 95.5,91.5C 93.9704,91.3601 92.9704,90.6935 92.5,89.5 Z"></path>
  </g>
  <g>
    <path style="opacity:1" fill="#66463f" d="M 63.5,109.5 C 60.9556,109.104 58.7889,109.771 57,111.5C 56.3828,110.551 56.5494,109.718 57.5,109C 55.0709,108.297 52.7375,108.463 50.5,109.5C 50.5,109.167 50.5,108.833 50.5,108.5C 54.9298,107.139 59.2632,107.473 63.5,109.5 Z"></path>
  </g>
  <g>
    <path style="opacity:1" fill="#cbcac5" d="M 87.5,135.5 C 90.5124,133.712 92.179,131.379 92.5,128.5C 87.4119,133.685 81.4119,134.852 74.5,132C 72.2726,131.059 70.2726,129.892 68.5,128.5C 71.7215,128.85 74.8882,129.517 78,130.5C 79.8882,130.204 81.7216,129.704 83.5,129C 90.793,124.041 97.1264,118.041 102.5,111C 106.111,109.746 107.611,110.912 107,114.5C 99.255,122.992 95.0883,132.992 94.5,144.5C 93.5,144.5 92.5,144.5 91.5,144.5C 90.1784,141.502 88.8451,138.502 87.5,135.5 Z"></path>
  </g>
  <g>
    <path style="opacity:1" fill="#aa675c" d="M 63.5,109.5 C 65.7857,109.595 67.7857,110.262 69.5,111.5C 66.4605,112.278 63.7938,113.612 61.5,115.5C 59.2843,116.203 57.451,117.536 56,119.5C 55.0695,116.638 53.4029,114.305 51,112.5C 50.5172,111.552 50.3505,110.552 50.5,109.5C 52.7375,108.463 55.0709,108.297 57.5,109C 56.5494,109.718 56.3828,110.551 57,111.5C 58.7889,109.771 60.9556,109.104 63.5,109.5 Z"></path>
  </g>
  <g>
    <path style="opacity:1" fill="#191413" d="M 50.5,108.5 C 50.5,108.833 50.5,109.167 50.5,109.5C 50.3505,110.552 50.5172,111.552 51,112.5C 53.4029,114.305 55.0695,116.638 56,119.5C 57.451,117.536 59.2843,116.203 61.5,115.5C 60.5,116.833 59.5,118.167 58.5,119.5C 57.5416,119.953 56.7083,120.619 56,121.5C 55.1482,120.429 54.3149,119.429 53.5,118.5C 52.8358,116.513 51.6692,114.846 50,113.5C 49.2204,111.613 49.3871,109.946 50.5,108.5 Z"></path>
  </g>
  <g>
    <path style="opacity:1" fill="#1e1b19" d="M 69.5,111.5 C 67.4691,113.755 64.8025,115.088 61.5,115.5C 63.7938,113.612 66.4605,112.278 69.5,111.5 Z"></path>
  </g>
  <g>
    <path style="opacity:1" fill="#454543" d="M 41.5,124.5 C 41.5,124.833 41.5,125.167 41.5,125.5C 40.5222,125.189 39.8555,124.522 39.5,123.5C 40.357,122.6 41.0237,122.934 41.5,124.5 Z"></path>
  </g>
  <g>
    <path style="opacity:1" fill="#c8c7c2" d="M 53.5,118.5 C 54.3149,119.429 55.1482,120.429 56,121.5C 56.7083,120.619 57.5416,119.953 58.5,119.5C 59.0283,120.721 59.695,121.887 60.5,123C 63.7556,124.116 66.4223,125.949 68.5,128.5C 66.0763,127.97 63.743,127.136 61.5,126C 54.7587,125.798 48.092,125.632 41.5,125.5C 41.5,125.167 41.5,124.833 41.5,124.5C 44.6836,124.606 48.017,124.272 51.5,123.5C 53.0049,122.158 53.6715,120.492 53.5,118.5 Z"></path>
  </g>
  <g>
    <path style="opacity:1" fill="#282727" d="M 41.5,125.5 C 48.092,125.632 54.7587,125.798 61.5,126C 63.743,127.136 66.0763,127.97 68.5,128.5C 70.2726,129.892 72.2726,131.059 74.5,132C 81.4119,134.852 87.4119,133.685 92.5,128.5C 92.179,131.379 90.5124,133.712 87.5,135.5C 80.2464,139.162 72.9131,139.496 65.5,136.5C 67.5273,136.662 69.5273,136.495 71.5,136C 66.8641,133.435 61.8641,131.935 56.5,131.5C 53.9268,131.453 51.9268,132.453 50.5,134.5C 51.6685,136.217 53.3352,136.884 55.5,136.5C 54.4324,137.434 53.099,137.768 51.5,137.5C 50.4246,136.438 49.4246,136.438 48.5,137.5C 49.3721,139.45 50.0388,141.45 50.5,143.5C 49.8826,143.389 49.3826,143.056 49,142.5C 48.6355,135.781 46.1355,130.114 41.5,125.5 Z"></path>
  </g>
  <g>
    <path style="opacity:1" fill="#c8c7c2" d="M 42.5,61.5 C 40.8318,69.5355 39.1651,77.5355 37.5,85.5C 37.5,86.1667 37.5,86.8333 37.5,87.5C 35.7052,90.4036 33.8718,93.4036 32,96.5C 30.7514,103.326 29.5847,110.159 28.5,117C 29.8233,127.27 31.3233,137.436 33,147.5C 34.353,148.685 35.5197,150.019 36.5,151.5C 46.3254,152.823 55.992,152.823 65.5,151.5C 68.1667,151.5 70.8333,151.5 73.5,151.5C 100.167,152.833 126.833,152.833 153.5,151.5C 154.043,151.56 154.376,151.893 154.5,152.5C 113.171,153.667 71.8374,153.833 30.5,153C 29.4861,147.629 27.4861,142.629 24.5,138C 26.682,135.981 27.682,133.481 27.5,130.5C 25.0795,118.545 24.9128,106.545 27,94.5C 30.1213,87.8918 32.6213,81.0585 34.5,74C 33.7135,71.9011 33.3801,69.7345 33.5,67.5C 36.4771,65.5333 39.4771,63.5333 42.5,61.5 Z"></path>
  </g>
  <g>
    <path style="opacity:1" fill="#9b5950" d="M 65.5,136.5 C 62.1667,136.5 58.8333,136.5 55.5,136.5C 53.3352,136.884 51.6685,136.217 50.5,134.5C 51.9268,132.453 53.9268,131.453 56.5,131.5C 61.8641,131.935 66.8641,133.435 71.5,136C 69.5273,136.495 67.5273,136.662 65.5,136.5 Z"></path>
  </g>
  <g>
    <path style="opacity:1" fill="#c2c1bc" d="M 38.5,134.5 C 39.3986,135.994 39.0653,137.494 37.5,139C 42.8812,142.068 42.5479,144.234 36.5,145.5C 35.0538,141.49 35.7205,137.823 38.5,134.5 Z"></path>
  </g>
  <g>
    <path style="opacity:1" fill="#545451" d="M 83.5,145.5 C 83.4914,143.692 83.9914,142.025 85,140.5C 85.5986,142.535 85.0986,144.201 83.5,145.5 Z"></path>
  </g>
  <g>
    <path style="opacity:1" fill="#242423" d="M 50.5,143.5 C 51.9063,143.973 52.573,144.973 52.5,146.5C 51.0937,146.027 50.427,145.027 50.5,143.5 Z"></path>
  </g>
  <g>
    <path style="opacity:1" fill="#c3c2bd" d="M 51.5,137.5 C 53.0748,140.582 55.2415,143.249 58,145.5C 60.038,143.928 62.3713,142.928 65,142.5C 64.9725,144.417 64.1392,146.084 62.5,147.5C 62.7093,148.086 63.0426,148.586 63.5,149C 66.8168,149.498 70.1501,149.665 73.5,149.5C 66.1234,151.47 59.1234,150.47 52.5,146.5C 52.573,144.973 51.9063,143.973 50.5,143.5C 50.0388,141.45 49.3721,139.45 48.5,137.5C 49.4246,136.438 50.4246,136.438 51.5,137.5 Z"></path>
  </g>
  <g>
    <path style="opacity:1" fill="#fdfdfd" d="M 26.5,145.5 C 27.1556,148.866 28.4889,152.032 30.5,155C 72.6687,155.831 114.669,155.665 156.5,154.5C 157.401,155.29 158.068,156.29 158.5,157.5C 115.335,158.665 72.0019,158.831 28.5,158C 25.3799,155.592 24.0466,152.426 24.5,148.5C 24.9321,147.29 25.5987,146.29 26.5,145.5 Z"></path>
  </g>
  <g>
    <path style="opacity:1" fill="#10100f" d="M 83.5,145.5 C 83.4894,147.017 82.8228,148.184 81.5,149C 78.9196,150.144 76.2529,150.978 73.5,151.5C 70.8333,151.5 68.1667,151.5 65.5,151.5C 62.8127,151.664 60.146,151.497 57.5,151C 54.8854,150.388 53.2187,148.888 52.5,146.5C 59.1234,150.47 66.1234,151.47 73.5,149.5C 77.5318,149.814 80.8652,148.481 83.5,145.5 Z"></path>
  </g>
</svg>
